<?xml version="1.0" standalone="no"?>
<!DOCTYPE svg PUBLIC "-//W3C//DTD SVG 20010904//EN"
 "http://www.w3.org/TR/2001/REC-SVG-20010904/DTD/svg10.dtd">
<svg version="1.0" xmlns="http://www.w3.org/2000/svg"
 width="1280.000000pt" height="832.000000pt" viewBox="0 0 1280.000000 832.000000"
 preserveAspectRatio="xMidYMid meet">
<metadata>
Created by potrace 1.16, written by Peter Selinger 2001-2019
</metadata>
<g transform="translate(0.000000,832.000000) scale(0.100000,-0.100000)"
fill="#000000" stroke="none">
<path d="M7030 7073 c-8 -3 -55 -25 -105 -48 -49 -24 -142 -67 -205 -97 -63
-30 -153 -69 -200 -88 -47 -18 -150 -66 -230 -106 -80 -39 -212 -103 -295
-142 -147 -68 -178 -82 -320 -145 -38 -16 -97 -43 -130 -57 -33 -15 -78 -35
-100 -45 -22 -9 -73 -32 -113 -51 -40 -19 -78 -34 -85 -34 -7 0 -26 -8 -43
-19 -17 -10 -41 -22 -54 -26 -13 -4 -55 -22 -94 -40 -39 -18 -105 -47 -146
-65 -41 -17 -116 -52 -166 -76 -50 -24 -94 -44 -97 -44 -18 0 -584 -280 -1047
-518 -129 -66 -336 -168 -460 -225 -474 -221 -439 -201 -460 -249 -17 -40 -18
-60 -10 -293 5 -137 10 -342 12 -455 l3 -204 -372 -161 c-205 -88 -378 -166
-385 -173 -14 -14 -25 -605 -27 -1420 l-1 -374 29 -29 c59 -59 137 -24 152 67
4 27 11 387 15 799 4 413 10 770 13 794 l6 44 115 48 c63 27 124 53 135 58 11
6 101 44 200 86 267 113 335 151 320 176 -3 4 -9 157 -15 341 -5 183 -12 392
-15 465 l-5 132 168 82 c92 45 223 107 292 139 69 32 179 83 245 115 66 31
215 101 330 155 116 54 262 123 325 153 63 30 147 69 185 87 87 41 625 293
1057 496 180 85 360 169 400 188 40 18 276 129 523 246 519 245 549 259 583
265 30 5 154 65 163 78 4 5 11 7 17 3 30 -19 19 114 -12 143 -23 22 -71 34
-96 24z"/>
<path d="M7251 6825 c-1 -12 -4 -16 -9 -8 -4 6 -24 11 -44 11 -33 0 -38 -3
-38 -23 0 -17 -7 -24 -28 -28 -29 -6 -29 -7 -35 -94 -4 -48 -2 -221 3 -383 5
-162 14 -477 20 -700 43 -1701 44 -1722 86 -1770 7 -8 17 -27 23 -43 6 -15 14
-27 18 -26 21 3 33 -2 33 -16 0 -24 26 -17 38 10 7 14 23 30 37 35 14 5 25 16
25 23 0 8 7 29 16 46 28 56 28 97 -6 1086 -6 160 -17 513 -25 785 -9 272 -20
592 -25 710 -5 118 -10 236 -10 263 0 37 -3 47 -17 47 -15 0 -14 2 3 15 10 8
15 15 9 16 -5 1 -14 2 -20 4 -5 1 -16 3 -22 3 -7 1 -13 6 -13 12 0 5 7 6 17 3
11 -4 14 -3 9 5 -4 7 -13 12 -21 12 -7 0 -16 6 -18 13 -3 6 -6 3 -6 -8z"/>
<path d="M7579 6294 c-44 -50 -49 -92 -19 -142 17 -27 55 -50 223 -131 111
-54 238 -114 282 -134 44 -19 114 -50 155 -70 133 -62 469 -217 710 -327 129
-59 275 -126 323 -149 49 -23 90 -41 91 -41 2 0 55 -24 117 -54 63 -29 172
-80 244 -112 71 -32 152 -70 180 -84 l50 -25 6 -340 c3 -187 10 -641 14 -1008
l8 -668 -24 5 c-444 99 -695 147 -721 137 -27 -10 -68 -60 -68 -83 0 -23 39
-78 62 -88 13 -6 86 -23 163 -39 77 -16 205 -44 285 -61 80 -17 219 -46 310
-65 197 -41 424 -88 427 -89 0 -1 6 -206 12 -456 7 -250 16 -479 22 -507 12
-61 36 -83 89 -83 42 0 76 27 87 68 3 15 1 209 -5 432 -7 223 -12 451 -12 508
0 113 -13 161 -52 186 -13 9 -69 25 -124 37 -54 12 -130 29 -169 39 l-70 16
-23 1130 c-23 1108 -24 1129 -44 1145 -11 9 -104 55 -207 103 -102 48 -207 98
-233 111 -26 14 -157 72 -290 130 -134 58 -259 113 -278 122 -19 8 -215 94
-435 190 -220 97 -472 207 -560 245 -297 131 -376 160 -445 165 -55 4 -68 2
-81 -13z"/>
<path d="M5820 5684 c-29 -9 -47 -11 -54 -4 -6 6 -15 10 -20 10 -6 0 -2 -7 8
-15 11 -8 18 -15 15 -16 -2 0 -17 -2 -34 -4 -16 -2 -59 -9 -95 -14 -132 -20
-150 -21 -150 -11 0 12 -78 12 -145 -1 -27 -5 -56 -10 -62 -11 -7 -1 -13 -5
-13 -10 0 -4 -17 -8 -38 -8 -21 0 -42 -4 -48 -8 -5 -5 -40 -17 -77 -27 -38
-10 -86 -26 -107 -36 -21 -11 -47 -16 -57 -13 -15 5 -16 4 -3 -5 13 -9 11 -11
-7 -11 -12 0 -25 -4 -28 -10 -3 -5 -15 -10 -26 -10 -11 0 -48 -9 -82 -19 -34
-11 -84 -23 -112 -26 -27 -4 -62 -15 -76 -26 -15 -10 -34 -19 -42 -19 -9 0
-17 -4 -19 -9 -1 -5 -25 -19 -53 -32 -48 -23 -52 -28 -92 -119 l-43 -95 5
-129 c3 -71 7 -131 9 -134 3 -2 42 -9 86 -15 58 -8 87 -8 99 0 9 6 36 14 59
18 23 4 42 11 42 16 0 5 11 9 24 9 14 0 28 5 31 10 3 6 18 10 33 10 15 0 36 6
47 14 24 16 74 30 98 27 9 -1 17 4 17 11 0 9 21 20 53 28 28 7 59 17 67 21 19
10 182 59 235 71 22 5 58 13 80 17 22 5 74 19 115 31 98 28 267 68 355 83 61
11 72 16 83 41 19 38 25 27 13 -25 -6 -24 -11 -59 -11 -76 0 -18 -3 -33 -7
-34 -27 -2 -64 -11 -103 -24 -74 -24 -189 -56 -218 -60 -15 -2 -40 -9 -57 -16
-16 -7 -33 -12 -37 -11 -4 1 -27 -4 -50 -12 -24 -8 -68 -19 -98 -26 -30 -7
-66 -17 -80 -23 -57 -23 -76 -32 -90 -43 -8 -7 -28 -14 -45 -16 -23 -2 -31 -9
-34 -28 -4 -34 20 -160 31 -160 5 0 6 -4 3 -10 -3 -5 -3 -15 1 -21 3 -6 8 -70
9 -142 l4 -132 -32 -26 c-32 -27 -32 -27 -13 -48 11 -12 26 -21 34 -21 12 0
14 -12 9 -75 -4 -42 -11 -84 -17 -95 -29 -53 4 -151 58 -171 15 -6 36 -19 48
-30 23 -21 134 -36 134 -18 0 5 8 9 18 9 20 1 56 46 47 59 -3 5 -1 13 5 16 8
5 8 11 0 20 -7 9 -7 21 0 41 17 44 24 202 10 219 -18 21 -4 63 29 91 21 17 30
35 33 65 5 49 -13 63 -78 57 -43 -3 -44 -3 -45 29 -5 122 -28 242 -52 264 -21
19 -21 19 -1 34 10 8 23 15 27 15 5 0 23 6 40 14 18 7 59 21 92 31 33 10 70
22 83 26 13 5 34 9 47 9 13 0 27 5 30 10 3 6 19 10 36 10 16 0 37 4 47 9 9 6
34 13 54 16 21 3 48 16 61 28 12 13 30 26 40 30 9 3 17 11 17 16 0 5 8 10 18
10 9 -1 35 6 57 14 38 15 40 17 42 62 2 52 31 196 42 207 12 14 3 171 -11 179
-7 4 -31 5 -54 2 -26 -3 -44 -1 -48 6 -4 6 -2 11 4 11 15 0 4 51 -13 62 -9 6
-9 8 1 8 17 0 15 29 -3 36 -8 4 -13 9 -10 13 6 11 -24 51 -38 50 -7 -1 -32 -7
-57 -15z"/>
<path d="M4090 5409 c-31 -13 -70 -48 -70 -64 0 -7 -9 -10 -22 -8 -17 3 -26
-3 -36 -24 -8 -18 -9 -29 -2 -31 5 -2 10 -8 10 -13 0 -6 -4 -7 -10 -4 -5 3
-10 1 -10 -4 0 -6 5 -11 10 -11 27 0 2 -51 -186 -382 -21 -36 -43 -64 -48 -61
-5 3 -6 1 -2 -5 7 -12 -22 -74 -39 -82 -5 -3 -9 -9 -7 -14 2 -5 -5 -17 -14
-27 -9 -11 -13 -19 -9 -19 5 0 4 -5 -3 -12 -7 -7 -12 -18 -12 -26 0 -7 -12
-39 -27 -70 -14 -31 -28 -63 -29 -70 -1 -7 -11 -25 -21 -40 -30 -46 -43 -74
-38 -83 3 -4 -4 -13 -15 -19 -11 -6 -19 -14 -18 -18 1 -4 -2 -15 -5 -24 -4
-10 -10 -26 -14 -35 -3 -10 -5 -21 -5 -25 1 -5 -3 -8 -8 -8 -6 0 -22 -26 -36
-57 -39 -88 -58 -123 -67 -123 -5 0 -6 -9 -2 -19 3 -11 0 -23 -8 -28 -15 -9
-47 -74 -47 -96 0 -15 -30 -38 -90 -69 -42 -22 -41 -22 -33 -1 4 11 3 14 -5 9
-7 -4 -12 -2 -12 3 0 6 5 11 11 11 17 0 38 32 39 57 0 12 6 26 13 30 21 14 41
57 28 61 -22 7 -10 22 19 22 33 0 39 14 13 29 -17 10 -17 10 0 11 24 0 22 17
-3 25 l-21 7 21 34 c11 20 20 41 20 47 0 7 -6 3 -12 -8 -6 -11 -22 -33 -35
-48 -12 -16 -23 -37 -23 -47 0 -10 -4 -20 -9 -22 -5 -1 -11 -10 -13 -18 -2 -8
-11 -21 -20 -28 -10 -7 -18 -18 -18 -24 0 -7 -18 -33 -40 -59 -43 -51 -147
-241 -150 -274 -4 -33 -1 -45 11 -45 7 0 18 -8 25 -17 12 -17 16 -16 63 10 28
16 51 24 51 18 0 -14 -90 -193 -106 -211 -24 -29 -100 -168 -162 -300 -14 -30
-31 -62 -37 -70 -19 -23 -45 -110 -45 -147 0 -27 4 -33 21 -33 20 0 49 -21 49
-37 0 -4 9 -14 20 -21 11 -7 20 -18 20 -25 0 -15 38 -51 63 -60 20 -7 19 -5
41 -103 20 -89 20 -163 -1 -279 -18 -104 -28 -249 -18 -273 4 -9 9 -36 11 -60
4 -50 19 -82 39 -82 20 0 24 22 9 51 -31 62 -43 226 -20 271 26 50 41 225 29
347 -11 116 -4 170 27 209 22 27 39 54 49 79 6 11 14 24 20 27 12 8 71 125 71
143 0 7 5 13 10 13 6 0 9 3 8 8 -1 7 4 23 22 67 4 11 14 36 21 55 7 19 22 47
32 62 11 15 17 33 14 40 -3 8 2 19 11 25 20 12 96 162 176 348 71 164 90 194
137 220 26 14 53 25 61 25 8 0 23 9 33 20 10 11 25 20 34 20 9 0 29 7 45 15
15 8 30 15 32 15 2 0 3 -93 2 -207 -2 -158 0 -207 10 -210 6 -3 12 -11 12 -19
0 -17 26 -19 33 -1 3 6 6 -1 6 -18 2 -39 15 -59 35 -52 13 5 16 -2 16 -42 0
-44 2 -49 26 -54 17 -3 24 -1 21 7 -3 7 4 18 14 24 10 7 18 17 16 23 -1 6 7
13 18 15 11 1 25 11 30 20 6 10 18 26 28 36 9 10 17 28 17 41 0 13 4 27 10 33
10 10 21 99 25 209 1 39 5 133 10 210 l7 141 51 12 c27 6 96 32 151 56 176 77
270 115 301 121 l30 6 -25 -18 c-13 -10 -50 -38 -80 -63 -31 -25 -63 -49 -72
-55 -47 -30 -78 -54 -118 -92 -25 -23 -61 -54 -81 -70 -103 -82 -174 -178
-151 -206 7 -8 8 -17 3 -23 -11 -12 4 -54 20 -54 7 0 17 -8 24 -17 12 -16 30
-20 200 -41 33 -4 65 -10 71 -14 6 -4 125 -10 265 -14 181 -5 257 -11 266 -20
10 -10 -11 -24 -105 -70 -64 -32 -119 -61 -122 -64 -3 -3 -32 -18 -65 -35 -33
-16 -61 -33 -63 -37 -2 -5 -10 -8 -18 -8 -8 0 -14 -5 -14 -10 0 -6 -3 -9 -7
-8 -8 3 -124 -51 -133 -62 -4 -4 -36 -23 -95 -54 -11 -6 -22 -13 -25 -16 -3
-3 -30 -17 -60 -33 -30 -15 -89 -45 -130 -67 -41 -22 -80 -40 -86 -40 -7 0
-15 -7 -18 -16 -4 -9 -9 -14 -12 -11 -3 3 -22 -4 -42 -15 -67 -39 -87 -48 -99
-48 -7 0 -13 -4 -13 -10 0 -5 -7 -10 -15 -10 -8 0 -15 -4 -15 -10 0 -5 -7 -10
-15 -10 -8 0 -15 -4 -15 -10 0 -5 -9 -10 -20 -10 -11 0 -20 -4 -20 -9 0 -8
-37 -24 -52 -22 -5 1 -8 -3 -8 -9 0 -5 -9 -10 -19 -10 -11 0 -22 -4 -26 -10
-3 -5 -12 -7 -20 -3 -8 3 -15 1 -15 -4 0 -6 -21 -21 -47 -34 -27 -13 -49 -27
-51 -31 -2 -5 -9 -8 -16 -8 -16 0 -105 -47 -129 -68 -38 -34 -124 -74 -151
-70 -15 2 -22 -3 -24 -19 -2 -12 -11 -22 -20 -22 -67 -4 -87 -7 -89 -16 -1 -6
14 -9 35 -7 28 2 33 0 22 -7 -8 -6 -23 -11 -32 -11 -10 0 -35 -17 -56 -38
l-38 -38 30 -24 c16 -13 24 -26 17 -28 -26 -9 2 -20 30 -12 25 7 29 7 20 -4
-13 -15 -5 -26 19 -26 20 0 55 -37 64 -67 9 -30 53 -63 83 -63 13 0 22 4 18 9
-6 11 15 19 71 26 24 3 54 16 70 30 75 64 91 76 122 91 18 8 30 19 27 25 -4 5
7 12 24 15 17 4 31 10 31 15 0 5 6 9 14 9 8 0 18 4 21 10 4 6 -1 7 -12 4 -10
-3 -3 3 15 15 18 12 37 19 43 16 5 -4 12 1 15 9 3 9 15 16 25 16 10 0 19 4 19
10 0 5 7 7 15 3 10 -3 15 0 13 8 -2 8 7 15 22 17 60 7 72 12 60 27 -9 11 -3
15 37 21 36 5 43 9 28 14 -17 6 -15 9 18 23 20 9 37 21 37 26 0 6 8 11 19 11
19 0 94 29 77 30 -5 0 3 9 17 20 15 12 33 18 44 14 14 -4 15 -4 4 4 -11 8 -10
12 8 22 13 6 28 9 35 7 7 -3 19 -1 27 4 11 7 10 9 -6 9 -12 0 1 10 32 25 28
13 54 29 58 34 3 6 15 11 26 11 10 0 19 7 19 15 0 10 14 17 41 21 22 4 43 13
46 20 2 7 16 20 30 29 19 13 27 14 33 5 5 -9 9 -9 14 -1 4 6 2 11 -4 11 -6 0
-8 5 -5 10 3 6 14 10 24 10 10 0 35 13 56 30 21 17 46 30 56 30 11 0 19 4 19
8 0 5 19 16 43 27 23 10 44 21 47 25 9 11 81 50 94 50 7 0 21 8 32 18 10 9 54
35 97 56 42 22 77 44 77 50 0 5 3 7 6 3 3 -3 25 5 47 18 23 13 89 48 147 77
58 29 106 56 108 60 2 4 19 10 38 14 19 3 34 9 34 13 0 3 15 12 33 20 17 8 34
17 37 20 3 4 29 19 58 34 139 72 157 82 160 89 2 5 12 8 23 8 10 0 19 4 19 9
0 8 35 22 44 18 2 -1 13 7 25 17 12 11 21 15 21 10 0 -5 4 -4 8 1 4 6 52 33
107 60 55 28 102 53 105 56 3 3 39 23 80 45 41 21 78 43 81 47 3 4 10 7 15 5
5 -1 34 14 65 34 30 19 66 39 78 43 13 4 32 16 42 26 11 11 33 22 49 26 17 3
30 9 30 14 0 5 9 9 20 9 11 0 20 5 20 10 0 6 6 10 14 10 8 0 41 15 74 34 33
19 63 32 66 28 3 -3 6 -1 6 5 0 6 15 16 33 23 17 7 46 19 64 26 17 8 34 14 38
14 9 0 78 52 91 69 6 8 11 27 12 42 0 15 5 36 11 47 7 14 6 25 -5 41 -14 20
-14 24 1 47 15 23 15 27 0 50 -9 14 -13 29 -10 34 3 5 0 12 -7 17 -19 12 -278
13 -403 2 -166 -16 -203 -21 -423 -65 -144 -28 -132 -27 -132 -13 0 5 4 8 9 5
5 -3 40 24 79 62 99 95 199 184 233 205 l29 19 0 -25 c0 -13 7 -41 15 -61 12
-29 21 -36 43 -36 23 0 32 8 49 43 12 23 29 83 38 132 10 50 22 98 27 109 8
14 7 17 -3 11 -9 -6 -11 -3 -6 8 3 9 0 20 -7 24 -8 5 -13 25 -12 53 1 42 -1
45 -26 48 -15 2 -38 -4 -50 -12 -26 -18 -52 -21 -42 -5 3 6 -8 3 -25 -6 -18
-9 -29 -20 -26 -26 4 -5 3 -9 -2 -8 -14 3 -43 -12 -76 -42 -18 -15 -51 -41
-75 -57 -57 -37 -158 -121 -245 -202 -201 -186 -244 -236 -234 -265 4 -8 2
-17 -3 -20 -18 -11 -10 -35 10 -35 15 0 20 -7 20 -28 0 -16 9 -37 20 -47 12
-10 19 -24 16 -31 -3 -7 2 -18 9 -24 9 -8 13 -21 9 -35 -5 -20 0 -25 33 -36
21 -7 52 -12 68 -12 29 1 229 19 313 27 47 6 58 -9 13 -19 -16 -3 -36 -14 -45
-24 -9 -10 -34 -24 -56 -31 -22 -7 -40 -17 -40 -22 0 -4 -9 -8 -20 -8 -11 0
-20 -4 -20 -10 0 -5 -9 -10 -21 -10 -11 0 -18 -4 -14 -9 3 -5 1 -12 -5 -16 -5
-3 -10 -1 -10 6 0 8 -5 7 -17 -3 -10 -8 -25 -18 -33 -22 -8 -3 -55 -31 -105
-61 -49 -31 -98 -58 -107 -61 -10 -4 -18 -10 -18 -15 0 -5 -5 -9 -10 -9 -13 0
-19 -3 -310 -152 l-225 -116 3 55 c2 31 -1 60 -7 66 -6 6 -11 18 -11 27 0 34
-38 42 -229 47 -102 2 -200 8 -218 12 -17 5 -72 8 -122 6 -105 -3 -112 4 -48
52 23 17 51 40 62 50 33 29 126 98 190 139 33 22 65 44 71 50 6 5 37 26 68 45
50 29 57 37 53 59 -3 14 0 32 8 40 7 8 25 37 39 64 48 88 15 163 -64 144 -19
-5 -53 -13 -75 -18 -22 -4 -74 -17 -115 -29 -41 -11 -102 -28 -135 -37 -33 -8
-80 -24 -105 -34 -63 -25 -163 -55 -177 -53 -7 0 -13 -3 -13 -8 0 -5 -8 -9
-19 -9 -10 0 -24 -7 -31 -15 -7 -8 -18 -15 -25 -15 -6 0 -34 -11 -61 -25 -86
-44 -88 -41 -79 78 9 129 12 163 20 262 4 44 8 127 10 185 1 58 8 197 15 309
l14 204 -30 23 c-31 26 -80 30 -124 13z m-175 -922 c12 4 14 -6 14 -46 -2 -50
-11 -71 -24 -51 -3 5 -1 19 5 30 6 11 7 20 2 20 -13 0 -22 -36 -22 -84 0 -40
13 -41 23 -1 3 11 5 4 6 -17 1 -32 -2 -38 -19 -38 -11 0 -20 -5 -20 -11 0 -6
7 -8 16 -5 9 3 21 3 27 -1 7 -4 2 -9 -13 -13 -21 -5 -25 -12 -25 -46 0 -35 -3
-39 -27 -42 -18 -2 -25 -8 -22 -17 4 -9 -4 -16 -23 -21 -15 -4 -37 -15 -48
-25 -25 -22 -85 -37 -85 -21 0 6 9 16 20 22 10 6 17 16 14 24 -3 7 3 16 13 20
15 6 15 9 3 16 -12 8 -12 10 3 16 9 3 17 13 17 21 0 8 9 28 21 45 12 16 19 32
16 35 -3 3 4 22 17 42 13 20 21 42 19 48 -3 7 2 16 11 19 8 3 13 11 10 18 -2
6 4 21 14 32 10 11 18 28 16 39 -2 11 3 26 9 34 10 12 13 9 15 -17 2 -22 7
-29 17 -25z"/>
<path d="M8503 4633 c-13 -2 -23 -11 -23 -19 0 -8 -10 -14 -25 -14 -38 0 -55
-35 -49 -100 3 -30 10 -57 16 -61 7 -4 6 -8 -2 -11 -9 -3 -7 -22 8 -78 46
-165 54 -350 22 -471 -11 -41 -20 -85 -20 -97 0 -15 -7 -26 -20 -29 -11 -3
-20 -11 -20 -18 0 -7 -11 -16 -25 -19 -14 -4 -25 -13 -25 -21 0 -8 -8 -15 -18
-15 -10 0 -33 -11 -52 -25 -19 -14 -39 -25 -44 -25 -17 0 -86 -34 -203 -100
-75 -41 -88 -47 -78 -30 3 5 0 7 -9 4 -8 -3 -12 -11 -10 -19 5 -13 -49 -38
-60 -28 -3 4 -6 1 -6 -6 0 -7 -4 -9 -10 -6 -5 3 -10 2 -10 -3 0 -17 -50 -43
-70 -37 -11 4 -20 11 -20 16 0 10 50 69 83 98 9 8 17 19 17 24 0 14 52 77 64
77 6 0 17 12 23 28 7 15 37 54 68 87 30 33 55 66 55 73 0 6 5 12 10 12 6 0 10
5 10 10 0 6 23 41 51 77 28 37 53 73 56 80 3 7 10 10 16 6 6 -4 8 0 4 10 -3
10 -2 17 3 17 6 0 10 7 10 15 0 8 4 15 9 15 17 0 32 60 20 82 -6 11 -8 22 -5
25 3 4 1 12 -5 19 -7 9 -7 19 0 33 25 47 -2 52 -40 8 l-24 -28 -17 21 c-15 17
-15 20 -3 20 8 0 15 5 15 10 0 6 -7 10 -15 10 -8 0 -15 6 -15 13 0 6 -18 -9
-40 -34 -22 -26 -50 -49 -64 -53 -13 -3 -31 -17 -40 -31 -9 -14 -23 -25 -31
-25 -8 0 -15 -4 -15 -9 0 -5 -26 -26 -57 -45 -32 -20 -65 -40 -73 -46 -86 -60
-217 -141 -238 -148 -15 -5 -27 -15 -27 -23 0 -8 -7 -13 -16 -11 -9 1 -22 -9
-29 -23 -8 -16 -22 -25 -37 -25 -13 0 -36 -7 -51 -17 -99 -60 -194 -123 -202
-133 -7 -9 -98 -70 -104 -70 -5 0 -147 -105 -186 -137 -19 -16 -219 -165 -238
-178 -9 -5 -23 -17 -33 -25 -26 -22 -37 -30 -114 -88 -38 -28 -81 -61 -95 -72
-14 -11 -33 -20 -42 -20 -10 0 -18 -7 -18 -15 0 -8 -9 -19 -19 -25 -11 -5 -25
-16 -33 -23 -7 -7 -34 -25 -60 -40 -26 -15 -59 -38 -72 -50 -13 -12 -34 -29
-47 -37 -12 -8 -38 -30 -56 -47 -21 -21 -44 -33 -61 -33 -22 0 -24 -2 -12 -11
12 -9 13 -11 1 -16 -7 -3 -22 -14 -32 -24 -11 -11 -23 -19 -29 -19 -5 0 -10
-4 -10 -10 0 -5 -9 -10 -19 -10 -10 0 -21 -7 -25 -15 -3 -8 -13 -15 -22 -15
-9 0 -35 -18 -57 -39 -23 -22 -57 -53 -74 -69 -18 -16 -33 -33 -33 -38 0 -5
-22 -27 -50 -49 -35 -29 -47 -45 -43 -58 6 -23 39 -57 54 -57 6 0 9 -7 6 -15
-7 -18 11 -31 25 -17 12 12 50 4 42 -9 -3 -5 2 -9 10 -9 8 0 18 4 21 10 3 5
15 15 25 20 15 8 18 7 14 -3 -8 -21 80 -22 100 -1 9 9 29 19 44 23 17 5 28 15
30 29 2 16 10 22 28 22 14 0 24 6 24 15 0 8 11 17 25 21 14 3 25 12 25 20 0 8
6 14 13 14 8 0 23 8 35 18 54 45 63 52 70 52 5 0 24 14 43 31 19 17 48 38 64
46 34 17 138 94 143 106 2 4 10 7 18 7 18 0 84 41 150 95 18 14 36 25 41 25 5
0 35 18 67 40 31 22 60 40 64 40 4 0 18 10 32 23 24 21 54 43 106 77 22 14 77
52 191 133 29 20 55 37 58 37 3 0 15 8 26 19 11 10 37 27 57 37 20 11 40 24
44 29 5 6 8 3 8 -7 0 -9 -6 -23 -13 -30 -16 -16 -59 -99 -76 -148 -27 -74 -26
-80 13 -116 21 -19 52 -41 69 -50 18 -9 34 -20 37 -23 8 -10 74 -31 96 -31 10
0 28 7 38 15 14 11 22 12 27 4 4 -6 16 -8 28 -4 12 3 19 11 15 16 -3 6 0 9 7
8 21 -3 49 12 49 26 0 13 67 44 98 46 10 0 12 3 5 6 -23 9 -14 21 22 27 24 5
33 11 28 21 -3 9 1 15 11 15 9 0 26 11 38 25 12 14 30 25 40 25 10 0 18 6 18
14 0 9 12 16 33 18 23 2 32 8 31 20 -1 11 8 19 27 23 16 4 29 11 29 16 0 6 4
8 9 5 4 -3 17 1 27 9 10 8 25 15 33 15 7 0 24 11 37 25 13 14 34 25 47 25 14
0 27 7 31 15 3 8 12 15 21 15 8 0 15 5 15 11 0 6 7 8 15 5 9 -3 18 1 21 9 4 8
11 15 18 15 6 0 33 11 60 25 27 14 56 25 63 25 7 0 16 7 19 15 4 8 10 12 15 9
5 -3 9 2 9 11 0 11 6 15 19 10 10 -3 24 1 31 10 7 8 16 13 20 10 10 -6 161 72
172 88 3 6 21 16 40 22 18 6 32 16 31 23 -2 7 1 12 7 12 17 0 90 34 90 42 0 5
9 8 20 8 11 0 20 3 20 8 0 8 73 42 90 42 6 0 10 5 10 10 0 6 5 10 11 10 6 0
29 13 52 29 23 15 62 38 87 50 25 12 54 27 64 34 80 50 126 77 130 75 2 -2 12
5 23 14 10 9 97 56 193 104 168 84 223 121 227 154 7 68 18 116 25 121 6 3 12
44 15 90 3 46 11 87 17 91 13 9 -32 54 -65 67 -21 7 -61 -2 -104 -25 -11 -6
-45 -14 -75 -18 -30 -4 -57 -11 -60 -15 -8 -11 -167 -71 -189 -71 -11 0 -23
-5 -27 -11 -3 -6 -15 -9 -25 -6 -10 3 -19 1 -21 -4 -2 -5 -57 -12 -123 -15
-124 -7 -239 1 -230 16 3 4 -7 11 -23 15 -15 4 -35 15 -45 26 -10 10 -29 19
-42 19 -14 0 -25 5 -25 10 0 6 6 10 12 10 7 0 2 7 -10 16 -12 8 -31 13 -41 9
-18 -5 -25 5 -36 54 -6 24 -28 31 -97 31 -42 0 -68 4 -68 11 0 6 8 8 19 4 11
-3 22 -1 26 5 4 6 -4 10 -19 10 -13 0 -30 2 -38 4 -7 2 -23 1 -35 -1z m585
-540 c-10 -2 -18 -9 -18 -14 0 -5 -18 -16 -40 -25 -22 -9 -40 -20 -40 -24 0
-4 -13 -10 -29 -13 -16 -3 -35 -12 -43 -20 -8 -8 -28 -18 -45 -21 -17 -4 -40
-16 -51 -26 -12 -11 -31 -20 -44 -20 -21 1 -22 2 -5 14 16 12 16 14 2 20 -15
5 -15 7 -1 22 20 19 20 25 1 18 -20 -8 -19 -2 5 26 11 13 20 29 20 37 0 7 10
13 23 14 12 0 32 2 45 3 13 2 24 0 26 -3 2 -3 27 -4 55 -3 28 2 48 8 45 13 -3
5 21 8 53 8 32 -1 50 -3 41 -6z"/>
<path d="M6829 3982 c-25 -9 -61 -28 -80 -42 -18 -14 -99 -58 -179 -98 -80
-41 -152 -80 -160 -87 -8 -7 -26 -16 -40 -20 -26 -8 -90 -40 -150 -77 -19 -11
-71 -39 -115 -62 -44 -23 -91 -49 -105 -58 -41 -27 -209 -116 -300 -159 -47
-22 -103 -50 -125 -61 -22 -12 -125 -65 -230 -118 -296 -151 -409 -214 -575
-320 -8 -5 -37 -23 -65 -40 -27 -17 -57 -35 -65 -40 -8 -5 -53 -32 -100 -60
-92 -56 -140 -96 -140 -117 0 -8 -4 -12 -10 -8 -10 6 -50 -15 -50 -27 0 -5 11
-8 25 -8 25 0 37 -29 13 -31 -7 -1 -2 -4 12 -9 14 -4 58 -5 98 -2 68 5 72 4
72 -17 0 -16 6 -21 28 -21 16 0 42 7 59 15 27 13 33 13 61 -1 25 -12 36 -13
53 -4 15 9 24 9 32 1 16 -16 88 -13 117 4 14 8 39 21 55 29 17 8 67 40 110 72
69 49 174 120 320 217 22 15 45 30 50 34 52 40 155 103 168 103 9 0 17 4 17 9
0 6 18 20 40 32 22 13 40 26 40 30 0 4 15 11 32 15 18 3 39 15 46 25 8 11 25
19 41 19 21 0 30 6 34 21 3 12 10 19 15 16 4 -3 15 3 22 14 8 10 22 19 32 19
10 0 18 3 18 8 0 8 12 15 79 47 22 11 41 23 41 27 0 5 7 8 15 8 8 0 24 9 35
20 11 11 20 17 20 14 0 -3 13 4 28 14 66 48 282 156 352 177 14 4 44 21 67 36
23 16 45 29 48 29 6 0 123 78 135 90 3 3 26 16 53 29 26 13 47 28 47 32 0 5 7
9 15 9 17 0 20 17 4 22 -6 2 -2 14 10 30 12 14 21 38 21 52 0 16 6 26 15 26 8
0 15 5 15 10 0 6 -8 10 -18 10 -33 0 -33 13 1 49 19 20 37 44 40 54 6 16 2 17
-31 11 -20 -3 -41 -10 -46 -15 -6 -5 -15 -9 -20 -9 -6 0 0 7 13 16 18 13 20
18 10 25 -17 11 -14 11 -70 -9z"/>
<path d="M8831 3514 c-40 -17 -77 -56 -98 -104 -20 -43 -24 -68 -25 -146 -1
-51 4 -70 31 -117 19 -34 46 -64 68 -77 l36 -21 -7 -182 c-4 -100 -8 -231 -9
-292 -2 -62 -8 -119 -15 -132 -29 -53 -2 -117 35 -80 13 13 14 22 3 66 -8 35
-9 60 -2 83 14 44 26 257 23 396 -1 61 1 112 4 112 4 0 22 -7 40 -16 32 -15
34 -18 41 -92 4 -42 2 -167 -5 -277 -6 -110 -11 -241 -11 -291 0 -50 -5 -106
-11 -123 -20 -56 25 -113 49 -63 5 9 6 85 2 167 -4 83 -3 182 1 220 5 39 8
145 9 236 0 91 5 179 10 195 6 16 32 47 58 69 57 47 81 90 94 170 12 72 10
169 -3 173 -5 2 -9 12 -9 23 0 12 -5 16 -15 12 -9 -3 -15 -2 -13 3 5 21 -14
51 -44 66 -76 38 -179 48 -237 22z"/>
<path d="M4078 2712 c-7 -11 -23 -24 -35 -30 -32 -18 -67 -99 -69 -161 -2 -47
1 -58 26 -82 29 -29 32 -46 46 -222 4 -53 2 -82 -6 -92 -16 -19 -9 -59 11 -63
12 -2 18 8 23 45 9 65 7 200 -5 230 -7 20 -5 25 17 33 62 24 91 -1 73 -63 -5
-20 -7 -60 -3 -89 7 -64 7 -59 4 -186 -2 -67 2 -108 9 -115 24 -24 32 11 31
134 -2 337 -2 340 23 363 31 29 63 83 77 132 11 36 10 49 -5 88 -10 25 -21 46
-26 46 -4 0 -20 11 -35 25 -22 21 -37 25 -85 25 -45 0 -61 -4 -71 -18z"/>
<path d="M3785 2512 c-11 -2 -32 -13 -47 -23 -14 -11 -30 -19 -36 -19 -5 0
-13 -8 -16 -17 -3 -10 -13 -29 -21 -43 -18 -30 -19 -61 -4 -114 14 -51 49 -84
97 -92 37 -6 41 -10 47 -43 7 -34 8 -245 1 -285 -3 -23 -16 -26 -118 -33 -55
-4 -78 -9 -78 -18 0 -15 -41 -8 -52 9 -6 8 -8 8 -8 0 0 -12 -86 -28 -197 -37
-23 -2 -45 -6 -49 -10 -4 -4 -21 -7 -38 -7 -17 0 -48 -5 -68 -10 -20 -6 -65
-15 -100 -20 -126 -18 -254 -42 -308 -56 -30 -9 -88 -22 -129 -29 -40 -8 -80
-20 -88 -27 -12 -9 -16 -9 -23 3 -8 12 -13 11 -38 -3 -16 -10 -47 -20 -70 -24
-22 -3 -43 -13 -46 -20 -3 -8 -18 -14 -34 -14 -25 0 -140 -35 -197 -60 -11 -5
-40 -16 -65 -24 -68 -22 -251 -116 -257 -132 -3 -8 -14 -14 -24 -14 -19 0 -49
-46 -49 -75 0 -8 16 -40 36 -70 25 -38 50 -61 82 -77 44 -22 60 -23 247 -25
110 0 236 3 280 8 79 8 211 35 250 49 48 18 156 49 225 65 41 10 88 22 103 28
28 10 28 10 8 28 -18 17 -39 19 -224 19 -152 0 -216 4 -253 15 -27 8 -76 15
-109 15 -59 0 -131 13 -143 24 -10 11 32 35 63 36 17 0 45 9 64 21 19 11 51
20 75 21 22 0 48 6 56 13 8 7 42 18 75 25 33 7 65 16 70 20 6 4 32 11 58 14
27 4 59 10 70 13 12 3 38 7 57 8 57 3 61 5 55 15 -3 6 3 10 14 10 13 0 18 -5
15 -13 -4 -10 3 -12 28 -9 32 5 32 6 8 13 -23 6 -22 7 10 10 19 1 60 3 91 4
31 1 64 5 72 8 9 3 69 9 134 13 65 3 122 10 126 14 5 4 -3 5 -16 3 -14 -3 -27
0 -31 5 -4 6 26 13 77 18 45 4 91 8 102 10 11 1 27 3 35 4 11 1 9 4 -5 10 -19
8 -19 9 2 9 12 1 24 -5 26 -11 4 -9 8 -9 14 -3 4 6 17 11 28 12 11 1 31 5 44
9 17 5 22 4 17 -4 -5 -8 0 -12 13 -12 12 0 21 5 21 11 0 6 9 9 19 6 10 -2 25
-1 32 4 7 4 18 4 24 0 5 -5 51 -5 100 0 50 4 104 8 120 9 18 2 23 4 13 7 -10
2 -18 8 -18 13 0 5 7 7 15 4 8 -4 15 -2 15 2 0 5 41 10 90 10 50 1 125 7 168
13 112 15 422 33 705 41 48 1 87 6 87 11 0 5 5 9 11 9 5 0 8 -4 5 -9 -9 -13
127 -11 143 2 11 9 13 9 8 0 -6 -9 30 -11 150 -7 87 2 181 7 208 10 28 2 60 5
73 5 12 -1 22 4 22 10 0 5 -4 8 -9 4 -15 -8 -25 15 -12 28 8 8 11 8 11 -1 0
-16 37 -15 43 1 3 9 9 9 27 -1 19 -12 24 -12 32 0 7 10 11 10 15 1 2 -7 11
-13 19 -13 8 0 14 -7 14 -15 0 -18 -26 -20 -33 -2 -3 7 -6 5 -6 -5 -1 -13 7
-18 27 -18 52 0 101 12 96 24 -7 18 57 11 68 -7 5 -10 14 -17 20 -17 7 0 7 4
-1 14 -20 24 66 32 241 22 51 -3 79 -16 35 -16 -15 0 -27 -4 -27 -10 0 -14 66
-13 92 1 16 8 17 13 8 19 -9 5 -5 8 11 8 86 1 340 13 367 18 17 3 32 10 32 16
0 7 4 7 13 1 18 -15 130 -22 152 -10 42 23 135 7 135 -23 0 -11 43 -13 78 -4
12 4 22 13 22 20 0 10 14 14 50 14 31 0 50 -4 50 -12 0 -7 6 -6 18 4 13 12 31
14 80 9 35 -4 65 -5 67 -3 7 7 205 7 208 0 1 -4 20 -3 42 2 23 5 42 5 45 0 3
-5 24 -5 50 1 31 7 46 7 48 0 2 -7 10 -8 21 -2 21 12 130 11 154 -1 10 -5 25
-5 37 2 11 6 20 7 20 3 0 -4 22 -8 49 -8 27 0 44 3 38 7 -7 5 -1 8 15 8 14 0
29 -6 32 -12 5 -10 7 -10 12 0 8 17 24 5 17 -14 -4 -12 2 -14 36 -13 42 3 57
24 24 32 -10 2 -1 4 20 3 36 0 54 -15 20 -17 -31 -1 18 -18 52 -18 25 0 27 2
10 8 -19 8 -19 8 3 15 33 11 152 14 158 5 2 -5 12 -5 21 -2 11 4 14 3 9 -5
-11 -18 10 -14 29 5 14 13 20 14 34 5 30 -23 44 -25 72 -15 15 6 31 7 36 3 4
-5 29 -5 56 -1 26 4 47 5 47 1 0 -4 133 -8 295 -8 169 0 318 -5 348 -11 29 -6
88 -13 132 -15 125 -6 215 -18 215 -27 0 -5 15 -9 33 -10 48 -1 142 -34 142
-50 0 -9 -14 -15 -40 -17 -22 -1 -49 -7 -60 -12 -20 -9 -534 -30 -736 -30 -90
0 -108 -3 -113 -16 -12 -30 12 -44 67 -39 29 3 160 9 292 15 442 18 480 20
550 26 87 7 125 31 125 78 0 22 -9 40 -27 58 -33 31 -151 88 -183 88 -12 0
-30 5 -41 11 -11 5 -32 12 -47 14 -83 13 -108 17 -122 23 -8 3 -31 7 -50 9
-19 1 -46 4 -60 7 -14 3 -46 8 -72 11 -35 5 -46 10 -41 21 6 17 -1 18 -26 2
-11 -7 -25 -8 -37 -3 -11 5 -57 10 -104 11 -161 4 -299 17 -297 28 1 6 -8 12
-20 14 -13 2 -23 -2 -23 -8 0 -7 7 -10 15 -6 8 3 15 1 15 -4 0 -13 -26 -13
-49 0 -20 10 -255 23 -379 20 -67 -1 -83 1 -88 14 -8 21 -60 21 -68 0 -3 -8
-10 -12 -16 -9 -6 4 -8 10 -6 14 3 4 -108 8 -247 10 -335 2 -620 11 -632 20
-13 9 -73 8 -104 -3 -16 -6 -21 -5 -17 3 5 8 -14 10 -71 6 -139 -10 -273 -12
-273 -4 0 4 -14 4 -30 -1 -17 -5 -180 -12 -363 -16 -182 -4 -354 -8 -382 -11
-27 -2 -122 -6 -210 -9 -88 -3 -167 -10 -177 -15 -9 -5 -95 -9 -191 -9 -96 0
-196 -4 -223 -9 -27 -5 -110 -11 -184 -12 -74 -1 -148 -6 -165 -10 -16 -4
-109 -10 -205 -14 -186 -6 -266 -12 -279 -19 -4 -3 -69 -6 -144 -7 -76 -1
-140 -6 -143 -11 -3 -4 -14 -3 -25 2 -13 8 -25 7 -39 0 -11 -6 -20 -8 -20 -4
0 4 -8 0 -18 -9 -13 -12 -43 -16 -122 -18 -214 -5 -259 -4 -267 4 -4 5 -11 74
-14 155 l-6 147 29 28 c16 15 32 27 36 27 4 0 15 13 25 29 20 34 23 138 4 161
-39 50 -114 83 -162 72z"/>
<path d="M5825 1629 c-77 -4 -185 -8 -240 -10 -73 -3 -103 -8 -112 -19 -11
-13 -14 -13 -22 -1 -7 11 -28 14 -77 13 -74 -2 -103 -12 -36 -12 23 0 42 -4
42 -10 0 -8 -160 -13 -307 -10 -17 0 -34 -4 -38 -10 -7 -12 -62 -14 -69 -2 -3
5 -27 6 -54 2 -62 -8 -215 -5 -230 4 -7 4 -18 4 -24 0 -7 -5 -58 -9 -113 -10
-55 -1 -165 -6 -245 -10 -80 -4 -185 -7 -234 -7 -50 1 -84 -2 -77 -6 9 -6 0
-11 -26 -16 -75 -14 -105 -16 -98 -5 4 6 -4 10 -17 9 -13 0 -17 -3 -10 -6 17
-7 15 -23 -3 -23 -8 0 -15 6 -15 13 0 8 -4 7 -10 -3 -8 -13 -11 -13 -19 -1 -6
9 -16 11 -27 7 -11 -4 -39 -11 -64 -16 -107 -19 -240 -87 -240 -123 0 -26 59
-147 71 -147 5 0 9 -6 9 -13 0 -7 14 -21 30 -31 17 -9 42 -29 56 -44 23 -24
25 -24 15 -4 -7 12 -8 22 -2 22 5 0 24 15 43 34 23 23 47 36 78 41 25 4 50 11
55 15 10 8 47 15 140 26 28 4 55 10 61 15 5 5 30 8 55 8 24 -1 56 4 70 9 15 6
87 14 160 17 74 4 202 14 284 22 168 17 387 32 575 38 69 2 148 9 175 14 28 6
122 13 210 16 88 3 198 7 245 10 47 2 144 7 215 10 72 3 234 10 360 15 127 6
372 13 545 15 173 3 371 8 440 11 145 7 289 5 393 -5 40 -3 88 -4 106 0 48 10
211 3 224 -10 14 -14 74 -15 79 -1 2 5 18 6 43 1 22 -5 117 -12 210 -16 94 -3
215 -10 270 -16 203 -18 381 -32 409 -31 52 2 50 20 -3 24 -18 1 -35 6 -38 12
-3 5 8 7 25 4 17 -2 29 -1 26 4 -3 4 2 8 11 8 10 0 13 -5 9 -12 -6 -10 -4 -10
7 -2 8 6 25 8 39 3 21 -6 22 -7 5 -9 l-20 -1 20 -9 c11 -5 49 -8 85 -7 l65 1
-57 3 c-32 2 -58 7 -58 11 -1 22 -25 33 -104 47 -67 12 -92 13 -102 4 -10 -9
-14 -9 -14 0 0 6 -12 11 -27 10 -53 -4 -228 13 -338 31 -60 10 -141 21 -180
25 -38 4 -106 13 -150 20 -44 7 -120 16 -170 20 -49 4 -96 12 -102 17 -7 6
-19 8 -27 5 -8 -3 -17 -3 -21 1 -4 4 -104 8 -223 9 -119 1 -273 4 -342 6 -98
3 -130 1 -148 -11 -20 -13 -22 -13 -16 2 5 14 -6 16 -92 17 -348 5 -566 4
-570 -3 -3 -5 -11 -5 -17 -1 -19 11 -428 15 -460 4 -15 -6 -26 -7 -23 -3 5 9
-74 9 -249 1z"/>
<path d="M7006 1309 c-31 -25 -33 -40 -6 -64 11 -10 20 -28 20 -40 0 -18 -9
-25 -45 -35 -25 -7 -59 -25 -75 -40 -31 -29 -109 -56 -135 -47 -19 8 -19 35
-1 56 12 14 11 18 -9 33 -22 17 -25 16 -86 -14 -35 -17 -65 -35 -67 -40 -2 -4
-20 -8 -40 -7 -20 0 -31 3 -24 6 21 8 13 33 -15 44 -16 6 -37 16 -47 21 -21
11 -21 12 -154 -140 -35 -40 -70 -72 -78 -72 -8 0 -14 -6 -14 -13 0 -16 -42
-57 -58 -57 -11 0 -17 27 -12 59 1 8 34 51 73 95 78 89 111 129 87 109 -17
-15 -56 -17 -65 -3 -8 14 -58 13 -73 -2 -6 -6 -24 -13 -39 -14 -15 -2 -29 -8
-31 -14 -4 -12 -32 -14 -32 -2 0 15 -70 42 -109 42 -54 0 -184 -45 -237 -81
-24 -16 -79 -72 -122 -123 -52 -62 -84 -92 -96 -90 -10 1 -19 4 -21 6 -13 13
1 78 17 78 5 0 7 4 3 9 -9 16 17 63 89 159 101 133 101 134 67 148 -23 10 -65
12 -102 5 -3 -1 -34 -39 -69 -86 -56 -76 -110 -128 -110 -108 0 11 -71 44 -95
44 -11 1 -34 -3 -51 -9 -23 -7 -35 -7 -44 1 -9 9 -11 8 -8 -3 2 -10 -4 -14
-19 -12 -33 5 -124 -47 -168 -95 -11 -13 -28 -23 -38 -23 -16 0 -94 -33 -169
-71 -20 -10 -65 -26 -100 -35 -105 -27 -115 -27 -121 -10 -8 19 12 30 153 81
58 21 119 43 135 50 17 7 49 19 73 26 33 9 42 17 42 34 0 23 -32 60 -43 49 -3
-4 -14 2 -24 11 -33 33 -229 4 -333 -50 -40 -20 -139 -95 -159 -119 -8 -9 -15
-41 -17 -72 -3 -46 -1 -55 11 -50 9 3 15 0 15 -9 0 -20 40 -39 74 -36 23 2 28
0 22 -14 -5 -15 -1 -16 36 -10 110 17 287 81 322 116 16 15 34 10 41 -11 3
-11 10 -20 15 -20 5 0 26 -10 46 -22 22 -13 50 -21 67 -19 19 2 27 -1 23 -8
-4 -6 0 -11 8 -11 9 0 16 8 16 18 1 15 2 15 15 -2 8 -11 15 -16 15 -10 0 5 12
9 28 10 107 4 132 8 132 21 0 11 8 13 31 8 24 -6 30 -4 24 6 -6 9 -4 10 11 4
29 -14 164 -18 164 -6 0 6 11 18 25 27 23 15 29 15 101 -11 72 -25 81 -26 150
-16 40 6 93 20 117 32 l45 22 21 -20 c22 -21 112 -39 131 -28 23 14 7 -40 -17
-61 -31 -27 -25 -32 10 -9 20 13 58 18 217 30 30 2 56 9 58 15 2 5 12 10 22
10 11 0 42 27 72 64 29 35 65 71 80 80 15 9 42 32 60 51 32 35 82 48 90 25 3
-9 25 -15 71 -19 28 -3 -16 -61 -46 -61 -10 0 -14 -5 -11 -15 4 -9 0 -15 -10
-15 -15 0 -20 -14 -19 -47 1 -7 -3 -11 -7 -8 -4 3 -10 -6 -12 -20 -3 -14 -2
-25 2 -25 5 0 6 -9 3 -19 -12 -46 142 -73 254 -45 128 31 253 78 253 94 0 16
69 74 103 87 26 9 28 12 10 12 -23 1 -48 -8 -178 -69 -144 -66 -225 -72 -225
-17 0 22 46 73 92 102 31 20 204 163 227 189 29 31 22 44 -14 28 -33 -15 -48
-15 -39 -1 5 8 2 9 -11 2 -18 -10 -62 -6 -70 7 -3 4 11 15 31 25 42 20 63 57
44 80 -20 24 -111 20 -144 -6z m-1025 -237 c15 -9 25 -25 23 -34 -1 -10 3 -18
9 -18 17 0 -59 -38 -131 -66 -72 -28 -110 -31 -119 -8 -10 28 103 126 157 137
14 2 27 5 30 6 3 0 17 -7 31 -17z m-652 -21 c11 -7 9 -16 -10 -50 -12 -22 -29
-41 -36 -41 -7 0 -13 -5 -13 -10 0 -6 -8 -13 -17 -17 -10 -3 -26 -13 -35 -21
-16 -13 -94 -20 -105 -8 -10 10 6 52 29 77 54 59 148 94 187 70z"/>
<path d="M8833 1294 c-48 -28 -52 -38 -24 -56 19 -12 19 -12 -2 -22 -26 -14
-43 -66 -21 -66 18 0 63 22 129 65 28 17 63 39 79 49 20 13 25 21 17 29 -8 8
-26 5 -65 -12 -32 -13 -68 -21 -88 -19 -28 3 -30 5 -13 12 46 18 64 30 59 38
-9 14 -27 9 -71 -18z"/>
<path d="M9068 1252 c-10 -2 -18 -10 -18 -18 0 -8 -9 -14 -21 -14 -12 0 -17 4
-13 11 11 18 -38 0 -63 -24 -13 -11 -23 -29 -23 -39 0 -10 -8 -30 -17 -45 -18
-27 -20 -34 -29 -98 -2 -22 -9 -67 -15 -100 -18 -107 -23 -205 -10 -205 6 0
11 6 11 13 0 8 3 8 9 -2 9 -15 17 -13 66 17 17 10 42 22 58 26 15 3 27 10 27
15 0 5 8 26 17 47 9 22 17 41 18 44 0 3 8 28 17 55 10 28 19 79 23 115 3 36 7
76 9 90 20 124 21 120 -5 118 -13 -1 -32 -4 -41 -6z"/>
<path d="M8142 1230 c-18 -17 -20 -24 -10 -45 6 -14 20 -27 31 -31 16 -5 18
-12 14 -40 -4 -22 -2 -34 6 -34 7 0 8 -3 1 -10 -14 -14 -142 -50 -176 -50 -26
0 -28 3 -28 40 0 34 4 42 24 50 36 13 41 29 16 55 -34 36 -74 39 -120 10 -48
-30 -50 -45 -9 -69 28 -16 31 -22 26 -52 -4 -25 -2 -34 9 -34 9 0 14 11 14 35
0 24 5 35 15 35 16 0 18 -12 9 -58 -7 -35 -25 -44 -119 -62 -38 -7 -74 -17
-79 -22 -6 -4 -25 -8 -42 -8 -45 0 -47 24 -5 69 34 35 34 36 12 39 -13 2 -28
-1 -34 -7 -6 -6 -18 -11 -26 -11 -9 0 -4 8 12 23 15 12 27 26 27 30 0 19 -52
3 -94 -29 -53 -40 -77 -38 -28 3 35 28 42 46 15 36 -24 -9 -188 -132 -327
-246 -21 -18 -52 -39 -69 -48 -24 -13 -26 -17 -13 -22 9 -4 16 -2 16 3 0 5 20
-4 45 -21 39 -26 53 -30 93 -27 26 3 55 8 65 12 13 6 16 5 12 -7 -9 -21 35
-30 56 -11 10 9 28 15 41 14 36 -3 44 0 28 10 -13 8 -12 10 3 10 9 0 17 -4 17
-10 0 -23 138 4 166 33 4 4 13 7 20 7 7 0 25 5 41 12 15 6 33 12 38 13 21 5
121 37 140 45 11 5 56 20 100 35 44 15 89 33 101 40 12 8 37 17 58 20 20 4 36
11 36 16 0 5 10 9 23 9 12 0 37 9 56 21 19 11 43 22 54 24 38 8 57 17 52 25
-3 4 3 6 12 4 26 -6 199 60 195 74 -1 7 5 15 14 19 21 8 -1 23 -34 23 -25 0
-55 23 -45 34 9 8 -8 6 -32 -4 -17 -7 -17 -9 -2 -9 33 -2 17 -21 -18 -21 -19
0 -57 -9 -84 -20 -27 -10 -60 -21 -73 -23 -13 -2 -30 -7 -38 -10 -44 -18 -134
-46 -137 -43 -2 2 -6 19 -10 38 -5 34 -4 36 29 42 18 3 44 13 56 22 19 13 21
19 11 31 -37 44 -121 56 -157 23z"/>
<path d="M4500 1234 c-40 -12 -121 -35 -175 -49 -33 -9 -74 -20 -91 -25 -17
-6 -38 -10 -47 -10 -9 0 -17 -4 -17 -9 0 -4 -15 -12 -32 -17 -34 -10 -65 -53
-47 -65 5 -3 7 -13 3 -22 -8 -22 32 -32 70 -18 67 26 83 7 41 -50 -14 -19 -47
-68 -75 -109 -27 -41 -65 -91 -83 -110 -19 -19 -40 -46 -47 -60 -25 -48 -91
-100 -127 -100 -22 0 -33 5 -33 15 0 10 6 12 18 8 14 -6 15 -4 4 9 -10 13 -5
23 30 64 24 27 48 53 56 57 7 5 10 12 7 17 -3 5 11 26 32 47 23 23 39 48 39
65 l2 26 -77 -5 c-42 -3 -81 -9 -87 -14 -6 -5 -25 -10 -41 -12 -46 -3 -106
-65 -147 -150 -21 -43 -36 -88 -35 -108 1 -50 29 -92 71 -104 19 -5 43 -16 52
-24 15 -12 31 -12 122 2 109 16 168 39 219 83 17 14 37 31 45 38 19 14 73 84
90 116 7 14 16 27 20 30 12 9 66 95 94 150 26 51 41 77 90 156 13 21 32 34 55
40 27 7 41 19 58 49 22 42 28 71 16 78 -16 9 -58 15 -73 11z"/>
<path d="M8665 1028 c-72 -26 -233 -82 -360 -124 -126 -42 -255 -85 -285 -96
-30 -11 -80 -29 -110 -40 -30 -11 -60 -24 -65 -28 -6 -5 -37 -18 -70 -31 -63
-23 -85 -36 -85 -50 0 -5 12 -9 26 -9 14 0 33 -7 41 -16 9 -8 23 -13 32 -11
109 34 159 43 185 34 20 -7 35 -6 48 2 10 6 23 11 30 11 7 0 27 7 43 16 32 17
277 108 335 125 19 6 58 21 85 33 28 13 84 36 125 51 41 16 77 32 78 37 2 4 9
8 16 8 23 0 68 42 62 57 -4 9 4 23 19 35 69 54 0 52 -150 -4z"/>
</g>
</svg>
